<svg xmlns="http://www.w3.org/2000/svg" width="480" height="480" viewBox="0 0 120 120">
  <title>EDIAGD mark — sun, wave, and palm in a circle</title>
  <circle cx="60" cy="60" r="56" fill="none" stroke="#132a40" stroke-width="2.4"/>
  <circle cx="52" cy="38" r="9" fill="#e3b15c"/>
  <g stroke="#e3b15c" stroke-width="2.2" stroke-linecap="round" fill="none">
    <line x1="52" y1="22" x2="52" y2="17"/>
    <line x1="41" y1="26" x2="38" y2="22.5"/>
    <line x1="63" y1="26" x2="66" y2="22.5"/>
    <line x1="36.5" y1="36" x2="31.5" y2="34.5"/>
    <line x1="67.5" y1="36" x2="72.5" y2="34.5"/>
  </g>
  <g fill="none" stroke="#132a40" stroke-width="2.4" stroke-linecap="round">
    <path d="M86 78 C 86 68, 84.5 56, 80 47"/>
    <path d="M80 47 C 72.5 42, 64 42.5, 58 47"/>
    <path d="M80 47 C 75 39.5, 67.5 36.5, 60 37.5"/>
    <path d="M80 47 C 82.5 38.5, 88 34, 95 33.5"/>
    <path d="M80 47 C 87.5 42.5, 95 43, 101 48"/>
    <path d="M80 47 C 79.5 39, 76 32.5, 70.5 29"/>
  </g>
  <path d="M16 76 C 22 52, 46 43, 57 55 C 48 52, 40.5 58, 42.5 67 C 53 60, 70 63, 80 73 C 60 82, 33 82, 16 76 Z" fill="#6fbcc6"/>
  <g fill="none" stroke="#6fbcc6" stroke-width="2.2" stroke-linecap="round">
    <path d="M26 88 C 42 93, 66 93.5, 86 88.5"/>
    <path d="M36 97 C 48 100.5, 64 100.5, 76 97.5" opacity="0.6"/>
  </g>
</svg>
